<svg width="188" height="188" viewBox="0 0 188 188" fill="none" xmlns="http://www.w3.org/2000/svg">
<path d="M0 0.400024C22.2485 8.32606 44.497 16.2521 68.1361 23.9695C91.7056 31.687 116.666 39.1959 132.935 55.4651C149.204 71.7343 156.713 96.6944 164.43 120.264C172.148 143.903 180.074 166.152 188 188.4H0V0.400024Z" fill="#D6D6FD"/>
<path d="M0 63.0435C14.8092 68.3275 29.6879 73.6115 45.4009 78.7565C61.1834 83.9015 77.8003 88.9074 88.6465 99.7535C99.4926 110.6 104.499 127.217 109.643 142.999C114.788 158.712 120.072 173.591 125.357 188.4H0V63.0435Z" fill="#748AF7"/>
<path d="M0 125.757C7.43935 128.399 14.8092 131.041 22.7352 133.613C30.5917 136.186 38.8654 138.689 44.2885 144.112C49.7115 149.535 52.2145 157.808 54.787 165.665C57.3595 173.591 60.0015 180.961 62.6435 188.4H0V125.757Z" fill="#0167F3"/>
</svg>
