<svg width="171" height="171" viewBox="0 0 171 171" fill="none" xmlns="http://www.w3.org/2000/svg">
<path d="M171.4 171C149.962 163.727 128.524 156.455 110.88 146.084C93.2991 135.649 79.5128 122.116 62.3116 109.088C45.0472 96.061 24.3046 83.5396 13.4274 65.453C2.48693 47.3665 1.4751 23.6516 0.400024 0H171.4V171Z" fill="#D6D6FD"/>
<path d="M171.4 114.021C157.108 109.152 142.816 104.282 131.053 97.3891C119.354 90.4327 110.184 81.4527 98.6744 72.7256C87.1648 64.0618 73.3153 55.7141 66.0428 43.6354C58.8334 31.5566 58.0746 15.8099 57.3789 0H171.4V114.021Z" fill="#748AF7"/>
<path d="M171.4 56.9789C164.254 54.5758 157.108 52.1727 151.227 48.6945C145.345 45.2163 140.792 40.7263 135.037 36.3628C129.282 31.9993 122.389 27.8254 118.721 21.8177C115.117 15.8099 114.737 7.90496 114.421 0H171.4V56.9789Z" fill="#0167F3"/>
</svg>
