<svg width="1440" height="1024" viewBox="0 0 1440 1024" fill="none" xmlns="http://www.w3.org/2000/svg">
<path d="M401.6 0L427.68 34.1333C453.92 68.2667 506.08 136.533 501.6 204.8C497.12 273.067 435.68 341.333 413.12 409.6C390.4 477.867 406.4 546.133 426.08 614.4C445.92 682.667 469.28 750.933 493.6 819.2C517.92 887.467 542.88 955.733 555.52 989.867L568 1024H0V989.867C0 955.733 0 887.467 0 819.2C0 750.933 0 682.667 0 614.4C0 546.133 0 477.867 0 409.6C0 341.333 0 273.067 0 204.8C0 136.533 0 68.2667 0 34.1333V0H401.6Z" fill="#5396F3"/>
<path d="M283.2 0L302.4 34.1333C321.6 68.2667 360 136.533 364.8 204.8C369.6 273.067 340.8 341.333 333.28 409.6C325.92 477.867 339.68 546.133 352.32 614.4C364.8 682.667 376 750.933 388.48 819.2C401.12 887.467 414.88 955.733 421.92 989.867L428.8 1024H0V989.867C0 955.733 0 887.467 0 819.2C0 750.933 0 682.667 0 614.4C0 546.133 0 477.867 0 409.6C0 341.333 0 273.067 0 204.8C0 136.533 0 68.2667 0 34.1333V0H283.2Z" fill="#2E7FF5"/>
<path d="M156.8 0L172.32 34.1333C187.68 68.2667 218.72 136.533 219.2 204.8C219.68 273.067 189.92 341.333 166.08 409.6C142.4 477.867 124.8 546.133 121.92 614.4C118.88 682.667 130.72 750.933 148.48 819.2C166.4 887.467 190.4 955.733 202.4 989.867L214.4 1024H0V989.867C0 955.733 0 887.467 0 819.2C0 750.933 0 682.667 0 614.4C0 546.133 0 477.867 0 409.6C0 341.333 0 273.067 0 204.8C0 136.533 0 68.2667 0 34.1333V0H156.8Z" fill="#0167F3"/>
</svg>
